<?xml version="1.0" encoding="utf-8"?>
<!-- Generator: Adobe Illustrator 17.1.0, SVG Export Plug-In . SVG Version: 6.00 Build 0)  -->
<!DOCTYPE svg PUBLIC "-//W3C//DTD SVG 1.1//EN" "http://www.w3.org/Graphics/SVG/1.1/DTD/svg11.dtd">
<svg version="1.1" id="Layer_1" xmlns="http://www.w3.org/2000/svg" xmlns:xlink="http://www.w3.org/1999/xlink" x="0px" y="0px"
	 viewBox="0 0 100 61.3" enable-background="new 0 0 100 61.3" xml:space="preserve">
<path fill="#E73A38" d="M80.6,22.2c-2.2,0-4.3,0.4-6.2,1c-1.5-3.4-3.3-7.3-5.3-11.9l1.3-3.6l4.5-0.1V3.8H57.8c-1.5,2,0.6,2,8.2,3.7
	l-1.3,3.7H30.9c2.3-7.9,1-7.4,11.2-7.3V0C28.1,0.1,30.5-1.5,23,22.8c-1.2-0.2-2.3-0.3-3.6-0.3C8.7,22.5,0,31.2,0,41.9
	s8.7,19.4,19.4,19.4c10.7,0,19.4-8.7,19.4-19.4c0-8-4.9-14.9-11.8-17.9c0.4-1.3,0.9-2.7,1.4-4.3c28.4,29.9,17.7,25.1,33,25.7
	c0.1,0,0.1,0,0.2,0c1.8,8.8,9.6,15.5,19,15.5c10.7,0,19.4-8.7,19.4-19.4S91.3,22.2,80.6,22.2z M34.3,41.9c0,8.2-6.7,14.9-14.9,14.9
	S4.5,50.1,4.5,41.9S11.2,27,19.4,27c0.7,0,1.5,0.1,2.2,0.2c-4.7,14.9-4.2,13.2-4.2,14.5c0,1.1,0.8,1.9,1.9,2
	c1.9-0.2,1.5,0.1,6.3-15.3C30.7,30.7,34.3,35.9,34.3,41.9z M53.4,41L30,15.4l33-0.1L53.4,41z M61.2,41.5l-3.6,0L67,16.9l3.6,8.1
	C65,28.3,61.2,34.5,61.2,41.5z M72.5,29.1l5.6,12.4l-12.3,0C65.8,36.3,68.4,31.8,72.5,29.1z M80.6,56.4c-6.9,0-12.6-4.7-14.3-11
	c15.5,0,16.9,0.8,17.1-1.9c0-0.8-0.3-1.3-7-16.2c1.4-0.4,2.8-0.6,4.3-0.6c8.2,0,14.9,6.7,14.9,14.9S88.8,56.4,80.6,56.4z"/>
</svg>
