<?xml version="1.0" encoding="utf-8"?>
<!-- Generator: Adobe Illustrator 17.1.0, SVG Export Plug-In . SVG Version: 6.00 Build 0)  -->
<!DOCTYPE svg PUBLIC "-//W3C//DTD SVG 1.1//EN" "http://www.w3.org/Graphics/SVG/1.1/DTD/svg11.dtd">
<svg version="1.1" id="Layer_1" xmlns="http://www.w3.org/2000/svg" xmlns:xlink="http://www.w3.org/1999/xlink" x="0px" y="0px"
	 viewBox="0 0 960 560" enable-background="new 0 0 960 560" xml:space="preserve">
<path fill="#FFFFFF" d="M759.5,202.8c-20.1,0-39.3,3.7-56.6,9.1c-13.7-31.1-30.1-66.7-48.4-108.7l11.9-32.9l41.1-0.9V34.7H551.3
	C537.6,53,556.7,53,626.2,68.5l-11.9,33.8H305.5c21-72.2,9.1-67.6,102.3-66.7V0c-127.9,0.9-106-13.7-174.5,208.3
	c-11-1.8-21-2.7-32.9-2.7c-97.7,0-177.2,79.5-177.2,177.2S102.7,560,200.5,560s177.2-79.5,177.2-177.2
	c0-73.1-44.8-136.1-107.8-163.5c3.7-11.9,8.2-24.7,12.8-39.3c259.4,273.1,161.7,229.3,301.5,234.8c0.9,0,0.9,0,1.8,0
	c16.4,80.4,87.7,141.6,173.6,141.6c97.7,0,177.2-79.5,177.2-177.2S857.3,202.8,759.5,202.8z M336.6,382.8
	c0,74.9-61.2,136.1-136.1,136.1S64.3,457.7,64.3,382.8s61.2-136.1,136.1-136.1c6.4,0,13.7,0.9,20.1,1.8
	c-42.9,136.1-38.4,120.6-38.4,132.5c0,10,7.3,17.4,17.4,18.3c17.4-1.8,13.7,0.9,57.6-139.8C303.7,280.5,336.6,328,336.6,382.8z
	 M511.1,374.6L297.3,140.7l301.5-0.9L511.1,374.6z M582.3,379.1h-32.9l85.9-224.7l32.9,74C617,258.5,582.3,315.2,582.3,379.1z
	 M685.5,265.8l51.2,113.3H624.3C624.3,331.6,648.1,290.5,685.5,265.8z M759.5,515.2c-63,0-115.1-42.9-130.6-100.5
	c141.6,0,154.4,7.3,156.2-17.4c0-7.3-2.7-11.9-63.9-148c12.8-3.7,25.6-5.5,39.3-5.5c74.9,0,136.1,61.2,136.1,136.1
	S834.5,515.2,759.5,515.2z"/>
</svg>
