<?xml version="1.0" encoding="utf-8"?>
<!-- Generator: Adobe Illustrator 17.1.0, SVG Export Plug-In . SVG Version: 6.00 Build 0)  -->
<!DOCTYPE svg PUBLIC "-//W3C//DTD SVG 1.1//EN" "http://www.w3.org/Graphics/SVG/1.1/DTD/svg11.dtd">
<svg version="1.1" id="Layer_1" xmlns="http://www.w3.org/2000/svg" xmlns:xlink="http://www.w3.org/1999/xlink" x="0px" y="0px"
	 viewBox="0 0 100 100" enable-background="new 0 0 100 100" xml:space="preserve">
<path fill="#007AFF" d="M85.4,14.6C75.9,5.2,63.4,0,50,0S24.1,5.2,14.6,14.6S0,36.6,0,50s5.2,25.9,14.6,35.4
	c9.4,9.4,22,14.6,35.4,14.6s25.9-5.2,35.4-14.6c9.4-9.4,14.6-22,14.6-35.4S94.8,24.1,85.4,14.6z M54.1,54.4l-0.9,0.7l-1,0.5L51,55.9
	L49.8,56l-1.1-0.2l-1.1-0.3l-1-0.6l-0.9-0.8l-0.7-0.9l-0.5-1L44.1,51L44,49.8l0.2-1.1l0.3-1.1l0.6-1l0.8-0.9l0.9-0.7l1-0.5l1.2-0.3
	l1.2-0.1l1.1,0.2l1.1,0.3l1,0.6l0.9,0.8l0.7,0.9l0.5,1l0.3,1.2l0.1,1.2l-0.2,1.1l-0.3,1.1l-0.6,1L54.1,54.4z M58,48.7l0.2-0.8l1,0.6
	l-0.7,0.9L58,48.7z M54.7,43.4l-0.4-0.7l1.1-0.3l0.1,1.1L54.7,43.4z M51.8,42.1l-0.6-0.5l0.8-0.6l0.5,0.9L51.8,42.1z M48.7,42
	l-0.8-0.2l0.6-1l0.9,0.7L48.7,42z M45.7,43.1L45,43.1l0.1-1l0.9,0.3L45.7,43.1z M42.1,48.2l-0.5,0.6L41,47.9l0.9-0.5L42.1,48.2z
	 M40.8,49.7l-1.1,1.2l-2.1-1.2l2.3-1.2L40.8,49.7z M41.5,50.7l0.5,0.7l-0.2,0.8l-1-0.6L41.5,50.7z M45.3,56.6l0.4,0.7l-1.1,0.3
	l-0.1-1.1L45.3,56.6z M48.2,57.9l0.6,0.5L47.9,59l-0.5-0.9L48.2,57.9z M51.3,58l0.8,0.2l-0.6,1l-0.9-0.7L51.3,58z M54.3,56.9
	l0.7-0.1l-0.1,1l-0.9-0.3L54.3,56.9z M57.9,51.8l0.5-0.6l0.6,0.8l-0.9,0.5L57.9,51.8z M59.2,50.3l1.1-1.2l2.1,1.2l-2.3,1.2
	L59.2,50.3z M61.1,48.2l1.9-2.3l6.1,0.9l-5.5,2.8L61.1,48.2z M60,47.5l-1.4-0.8l0.4-1.4l2.6,0.4L60,47.5z M57.5,46.1l-0.6-0.4
	L56.9,45l1,0.1L57.5,46.1z M56.8,43.7l-0.1-1.6l2.4-0.6l-0.8,2.5L56.8,43.7z M56.6,40.9l-0.2-3l5-3.7l-1.9,5.9L56.6,40.9z
	 M55.4,41.2l-1.6,0.4l-0.7-1.3l2.1-1.5L55.4,41.2z M52.5,39.2l-1.5-2.8l3.5-5.9l0.5,6.8L52.5,39.2z M51.5,39.9l-1.2,0.9l-1.2-1.1
	l1.2-2.1L51.5,39.9z M48.2,38.9L45.9,37l0.9-6.1l2.8,5.5L48.2,38.9z M47.5,40l-0.8,1.4l-1.4-0.4l0.4-2.6L47.5,40z M44.1,40.6l-3-1
	L39.4,33l5.2,4.5L44.1,40.6z M43.9,41.8l-0.2,1.5l-1.6,0.1L41.5,41L43.9,41.8z M43.5,44.5l-0.1,0.8l-0.7,0.4l-0.3-1.1L43.5,44.5z
	 M41.6,46.2l-1.3,0.7l-1.5-2.1l2.4-0.2L41.6,46.2z M39.2,47.5l-2.8,1.5l-5.9-3.5l6.8-0.5L39.2,47.5z M35.1,49.6l-6.3,3.3L6.1,49.4
	c0-0.7,0-1.4,0.1-2.1l22.2-1.7L35.1,49.6z M36.3,50.3l2.6,1.5L37,54.1l-6.1-0.9L36.3,50.3z M40,52.5l1.4,0.8l-0.4,1.4l-2.6-0.4
	L40,52.5z M42.5,53.9l0.6,0.4l0.1,0.7l-1-0.1L42.5,53.9z M43.2,56.3l0.1,1.6L41,58.5l0.8-2.5L43.2,56.3z M43.4,59.1l0.2,3l-5,3.7
	l1.9-5.9L43.4,59.1z M44.6,58.8l1.6-0.4l0.7,1.3l-2.1,1.5L44.6,58.8z M47.5,60.8l1.5,2.8l-3.5,5.9l-0.5-6.8L47.5,60.8z M48.5,60.1
	l1.2-0.9l1.2,1.1l-1.2,2.1L48.5,60.1z M51.8,61.1l2.3,1.9l-0.9,6.1l-2.8-5.5L51.8,61.1z M52.5,60l0.8-1.4l1.4,0.4l-0.4,2.6L52.5,60z
	 M55.9,59.4l3,1l1.7,6.6l-5.2-4.5L55.9,59.4z M56.1,58.2l0.2-1.5l1.6-0.1l0.6,2.4L56.1,58.2z M56.5,55.5l0.1-0.8l0.7-0.4l0.3,1.1
	L56.5,55.5z M58.4,53.8l1.3-0.7l1.5,2.1l-2.4,0.2L58.4,53.8z M60.8,52.5l2.8-1.5l5.9,3.5l-6.8,0.5L60.8,52.5z M64.9,50.4l6.3-3.3
	l22.7,3.4c0,0.7,0,1.4-0.1,2.1l-22.2,1.7L64.9,50.4z M73.1,46.2l18.7-9.7c1.3,4.1,2.1,8.4,2.1,12.9L73.1,46.2z M71,45.9l-7-1.1
	l5.1-5.9l21.5-5.6c0.3,0.7,0.5,1.3,0.8,2L71,45.9z M62.6,44.6l-3.1-0.5l1-3l6.6-1.7L62.6,44.6z M60.8,39.7L63,33l18.5-13.6
	c0.5,0.5,1,1,1.5,1.6L68.4,37.8L60.8,39.7z M63.6,31L70,10.9c3.9,2,7.5,4.6,10.6,7.6L63.6,31z M61.9,32.2l-5.7,4.2l-0.6-7.8
	L66.9,9.5c0.7,0.3,1.3,0.6,2,0.9L61.9,32.2z M55.5,26.5L54,6.3c4.1,0.4,8.1,1.3,11.8,2.7L55.5,26.5z M54.4,28.3l-4,6.8l-3.3-6.3
	l3.4-22.7c0.7,0,1.4,0,2.1,0.1L54.4,28.3z M46.2,26.9L36.5,8.2c4.1-1.3,8.4-2.1,12.9-2.1L46.2,26.9z M45.9,29l-1.1,7l-5.9-5.1
	L33.3,9.4c0.7-0.3,1.3-0.5,2-0.8L45.9,29z M37.3,29.5L21.9,16.3c3.1-2.6,6.6-4.8,10.3-6.4L37.3,29.5z M37.8,31.6l2,7.6L33,37
	L19.4,18.5c0.5-0.5,1-1,1.6-1.5 M40.1,40.6l0.7,2.9l-3,0.2l-3.7-5L40.1,40.6z M36.4,43.8l-7.8,0.6L9.5,33.1c0.3-0.7,0.6-1.3,0.9-2
	l21.9,6.9L36.4,43.8z M26.5,44.5L6.3,46c0.4-4.1,1.3-8.1,2.7-11.8L26.5,44.5z M26.9,53.8L8.2,63.5c-1.3-4.1-2.1-8.4-2.1-12.9
	L26.9,53.8z M29,54.1l7,1.1l-5.1,5.9L9.4,66.7c-0.3-0.7-0.5-1.3-0.8-2L29,54.1z M37.4,55.4l3.1,0.5l-1,3L33,60.6L37.4,55.4z
	 M39.2,60.3L37,67L18.5,80.6c-0.5-0.5-1-1-1.5-1.6l14.5-16.8L39.2,60.3z M36.4,69L30,89.1c-3.9-2-7.5-4.6-10.6-7.6L36.4,69z
	 M38.1,67.8l5.7-4.2l0.6,7.8L33.1,90.5c-0.7-0.3-1.3-0.6-2-0.9L38.1,67.8z M44.5,73.5L46,93.7c-4.1-0.4-8.1-1.3-11.8-2.7L44.5,73.5z
	 M45.6,71.7l4-6.8l3.3,6.3l-3.4,22.7c-0.7,0-1.4,0-2.1-0.1L45.6,71.7z M53.8,73.1l9.7,18.7c-4.1,1.3-8.4,2.1-12.9,2.1L53.8,73.1z
	 M54.1,71l1.1-7l5.9,5.1l5.6,21.5c-0.7,0.3-1.3,0.5-2,0.8L54.1,71z M62.7,70.5l15.4,13.2c-3.1,2.6-6.6,4.8-10.3,6.4L62.7,70.5z
	 M62.2,68.4l-2-7.6L67,63l13.6,18.5c-0.5,0.5-1,1-1.6,1.5L62.2,68.4z M59.9,59.4l-0.7-2.9l3-0.2l3.7,5L59.9,59.4z M63.6,56.2
	l7.8-0.6l19.2,11.3c-0.3,0.7-0.6,1.3-0.9,2l-21.9-6.9L63.6,56.2z M73.5,55.5L93.7,54c-0.4,4.1-1.3,8.1-2.7,11.8L73.5,55.5z
	 M90.1,32.2l-19.7,5.1l13.2-15.4C86.3,25,88.5,28.4,90.1,32.2z M18.5,19.4l12.5,17L10.9,30C12.9,26.1,15.5,22.5,18.5,19.4z
	 M9.9,67.8l19.7-5.1L16.3,78.1C13.7,75,11.5,71.6,9.9,67.8z M81.5,80.6L69,63.6L89.1,70C87.1,73.9,84.5,77.5,81.5,80.6z"/>
<circle fill="#007AFF" cx="50" cy="50" r="1.7"/>
</svg>
