<?xml version="1.0" encoding="utf-8"?>
<!-- Generator: Adobe Illustrator 17.1.0, SVG Export Plug-In . SVG Version: 6.00 Build 0)  -->
<!DOCTYPE svg PUBLIC "-//W3C//DTD SVG 1.1//EN" "http://www.w3.org/Graphics/SVG/1.1/DTD/svg11.dtd">
<svg version="1.1" id="Layer_1" xmlns="http://www.w3.org/2000/svg" xmlns:xlink="http://www.w3.org/1999/xlink" x="0px" y="0px"
	 viewBox="0 0 960 560" enable-background="new 0 0 960 560" xml:space="preserve">
<path fill="#E73A38" d="M678.2,81.8C625,29.1,555,0,480,0S335,29.1,281.8,81.8S200,205,200,280s29.1,145,81.8,198.2
	C334.4,530.9,405,560,480,560s145-29.1,198.2-81.8C730.9,425.6,760,355,760,280S730.9,135,678.2,81.8z M503,304.6l-5,3.9l-5.6,2.8
	l-6.7,1.7l-6.7,0.6l-6.2-1.1l-6.2-1.7l-5.6-3.4l-5-4.5l-3.9-5l-2.8-5.6l-2.2-6.7l-0.6-6.7l1.1-6.2l1.7-6.2l3.4-5.6l4.5-5l5-3.9
	l5.6-2.8l6.7-1.7l6.7-0.6l6.2,1.1l6.2,1.7l5.6,3.4l5,4.5l3.9,5l2.8,5.6l1.7,6.7l0.6,6.7l-1.1,6.2l-1.7,6.2l-3.4,5.6L503,304.6z
	 M524.8,272.7l1.1-4.5l5.6,3.4l-3.9,5L524.8,272.7z M506.3,243l-2.2-3.9l6.2-1.7l0.6,6.2L506.3,243z M490.1,235.8l-3.4-2.8l4.5-3.4
	l2.8,5L490.1,235.8z M472.7,235.2l-4.5-1.1l3.4-5.6l5,3.9L472.7,235.2z M455.9,241.4H452l0.6-5.6l5,1.7L455.9,241.4z M435.8,269.9
	l-2.8,3.4l-3.4-5l5-2.8L435.8,269.9z M428.5,278.3l-6.2,6.7l-11.8-6.7l12.9-6.7L428.5,278.3z M432.4,283.9l2.8,3.9l-1.1,4.5
	l-5.6-3.4L432.4,283.9z M453.7,317l2.2,3.9l-6.2,1.7l-0.6-6.2L453.7,317z M469.9,324.2l3.4,2.8l-5,3.4l-2.8-5L469.9,324.2z
	 M487.3,324.8l4.5,1.1l-3.4,5.6l-5-3.9L487.3,324.8z M504.1,318.6l3.9-0.6l-0.6,5.6l-5-1.7L504.1,318.6z M524.2,290.1l2.8-3.4
	l3.4,4.5l-5,2.8L524.2,290.1z M531.5,281.7l6.2-6.7l11.8,6.7l-12.9,6.7L531.5,281.7z M542.2,269.9l10.6-12.9l34.2,5l-30.8,15.7
	L542.2,269.9z M536,266l-7.8-4.5l2.2-7.8l14.6,2.2L536,266z M522,258.2l-3.4-2.2V252l5.6,0.6L522,258.2z M518.1,244.7l-0.6-9
	l13.4-3.4l-4.5,14L518.1,244.7z M517,229l-1.1-16.8l28-20.7l-10.6,33L517,229z M510.2,230.7l-9,2.2l-3.9-7.3l11.8-8.4L510.2,230.7z
	 M494,219.5l-8.4-15.7l19.6-33l2.8,38.1L494,219.5z M488.4,223.4l-6.7,5l-6.7-6.2l6.7-11.8L488.4,223.4z M469.9,217.8L457,207.2
	l5-34.2l15.7,30.8L469.9,217.8z M466,224l-4.5,7.8l-7.8-2.2l2.2-14.6L466,224z M447,227.4l-16.8-5.6l-9.5-37l29.1,25.2L447,227.4z
	 M445.8,234.1l-1.1,8.4l-9,0.6l-3.4-13.4L445.8,234.1z M443.6,249.2l-0.6,4.5l-3.9,2.2l-1.7-6.2L443.6,249.2z M433,258.7l-7.3,3.9
	l-8.4-11.8l13.4-1.1L433,258.7z M419.5,266l-15.7,8.4l-33-19.6l38.1-2.8L419.5,266z M396.6,277.8l-35.3,18.5l-127.1-19.6
	c0-3.9,0-7.8,0.6-11.8l124.3-9.5L396.6,277.8z M403.3,281.7l14.6,8.4L407.2,303l-34.2-5L403.3,281.7z M424,294l7.8,4.5l-2.2,7.8
	l-14.6-2.2L424,294z M438,301.8l3.4,2.2l0.6,3.9l-5.6-0.6L438,301.8z M441.9,315.3l0.6,9l-12.9,3.4l4.5-14L441.9,315.3z M443,331
	l1.1,16.8l-28,20.7l10.6-33L443,331z M449.8,329.3l9-2.2l3.9,7.3l-11.8,8.4L449.8,329.3z M466,340.5l8.4,15.7l-19.6,33l-2.8-38.1
	L466,340.5z M471.6,336.6l6.7-5l6.7,6.2l-6.7,11.8L471.6,336.6z M490.1,342.2l12.9,10.6l-5,34.2l-15.7-30.8L490.1,342.2z M494,336
	l4.5-7.8l7.8,2.2l-2.2,14.6L494,336z M513,332.6l16.8,5.6l9.5,37L510.2,350L513,332.6z M514.2,325.9l1.1-8.4l9-0.6l3.4,13.4
	L514.2,325.9z M516.4,310.8l0.6-4.5l3.9-2.2l1.7,6.2L516.4,310.8z M527,301.3l7.3-3.9l8.4,11.8l-13.4,1.1L527,301.3z M540.5,294
	l15.7-8.4l33,19.6l-38.1,2.8L540.5,294z M563.4,282.2l35.3-18.5l127.1,19c0,3.9,0,7.8-0.6,11.8L601,304.1L563.4,282.2z M609.4,258.7
	l104.7-54.3c7.3,23,11.8,47,11.8,72.2L609.4,258.7z M597.6,257l-39.2-6.2l28.6-33l120.4-31.4c1.7,3.9,2.8,7.3,4.5,11.2L597.6,257z
	 M550.6,249.8l-17.4-2.8l5.6-16.8l37-9.5L550.6,249.8z M540.5,222.3l12.3-37.5l103.6-76.2c2.8,2.8,5.6,5.6,8.4,9L583,211.7
	L540.5,222.3z M556.2,173.6L592,61c21.8,11.2,42,25.8,59.4,42.6L556.2,173.6z M546.6,180.3l-31.9,23.5l-3.4-43.7l63.3-107
	c3.9,1.7,7.3,3.4,11.2,5L546.6,180.3z M510.8,148.4l-8.4-113.1c23,2.2,45.4,7.3,66.1,15.1L510.8,148.4z M504.6,158.5l-22.4,38.1
	l-18.5-35.3l19-127.1c3.9,0,7.8,0,11.8,0.6L504.6,158.5z M458.7,150.6L404.4,45.9c23-7.3,47-11.8,72.2-11.8L458.7,150.6z M457,162.4
	l-6.2,39.2l-33-28.6L386.5,52.6c3.9-1.7,7.3-2.8,11.2-4.5L457,162.4z M408.9,165.2l-86.2-73.9c17.4-14.6,37-26.9,57.7-35.8
	L408.9,165.2z M411.7,177l11.2,42.6l-38.1-12.3l-76.2-103.6c2.8-2.8,5.6-5.6,9-8.4 M424.6,227.4l3.9,16.2l-16.8,1.1l-20.7-28
	L424.6,227.4z M403.8,245.3l-43.7,3.4l-107-63.3c1.7-3.9,3.4-7.3,5-11.2l122.6,38.6L403.8,245.3z M348.4,249.2l-113.1,8.4
	c2.2-23,7.3-45.4,15.1-66.1L348.4,249.2z M350.6,301.3l-104.7,54.3c-7.3-23-11.8-47-11.8-72.2L350.6,301.3z M362.4,303l39.2,6.2
	l-28.6,33l-120.4,31.4c-1.7-3.9-2.8-7.3-4.5-11.2L362.4,303z M409.4,310.2l17.4,2.8l-5.6,16.8l-36.4,9.5L409.4,310.2z M419.5,337.7
	l-12.3,37.5l-103.6,76.2c-2.8-2.8-5.6-5.6-8.4-9l81.2-94.1L419.5,337.7z M403.8,386.4L368,499c-21.8-11.2-42-25.8-59.4-42.6
	L403.8,386.4z M413.4,379.7l31.9-23.5l3.4,43.7l-63.3,107c-3.9-1.7-7.3-3.4-11.2-5L413.4,379.7z M449.2,411.6l8.4,113.1
	c-23-2.2-45.4-7.3-66.1-15.1L449.2,411.6z M455.4,401.5l22.4-38.1l18.5,35.3l-19,127.1c-3.9,0-7.8,0-11.8-0.6L455.4,401.5z
	 M501.3,409.4l54.3,104.7c-23,7.3-47,11.8-72.2,11.8L501.3,409.4z M503,397.6l6.2-39.2l33,28.6l31.4,120.4
	c-3.9,1.7-7.3,2.8-11.2,4.5L503,397.6z M551.1,394.8l86.2,73.9c-17.4,14.6-37,26.9-57.7,35.8L551.1,394.8z M548.3,383l-11.2-42.6
	l38.1,12.3l76.2,103.6c-2.8,2.8-5.6,5.6-9,8.4L548.3,383z M535.4,332.6l-3.9-16.2l16.8-1.1l20.7,28L535.4,332.6z M556.2,314.7
	l43.7-3.4l107.5,63.3c-1.7,3.9-3.4,7.3-5,11.2l-122.6-38.6L556.2,314.7z M611.6,310.8l113.1-8.4c-2.2,23-7.3,45.4-15.1,66.1
	L611.6,310.8z M704.6,180.3l-110.3,28.6l73.9-86.2C683.3,140,695.6,159,704.6,180.3z M303.6,108.6l70,95.2L261,168
	C272.2,146.2,286.8,126,303.6,108.6z M255.4,379.7l110.3-28.6l-74.5,86.2C276.7,420,264.4,401,255.4,379.7z M656.4,451.4l-70-95.2
	L699,392C687.8,413.8,673.2,434,656.4,451.4z"/>
<circle fill="#E73A38" cx="480" cy="280" r="9.5"/>
</svg>
